<mxfile host="app.diagrams.net" modified="2024-05-17T22:49:27.012Z" agent="Mozilla/5.0 (X11; Linux x86_64) AppleWebKit/537.36 (KHTML, like Gecko) Chrome/124.0.0.0 Safari/537.36" version="24.4.4" etag="78Tc2sNfeeBA3t4pfMS1" type="github">
  <diagram name="Page-1" id="q4QkHclr9eZNTrMMOFlM">
    <mxGraphModel>
      <root>
        <mxCell id="0" />
        <mxCell id="1" parent="0" />
      </root>
    </mxGraphModel>
  </diagram>
</mxfile>
